<svg xmlns:xlink="http://www.w3.org/1999/xlink" xmlns="http://www.w3.org/2000/svg" width="1759.854" height="380.18" viewBox="0 0 1759.854 380.18"><g id="kv" transform="translate(-371.979 -201.037)"><g id="Group_3243" data-name="Group 3243"><g id="Group_128" data-name="Group 128" transform="translate(357.515 190.457)"><path id="Path_155" class="logo-element" data-name="Path 155" d="M80.906 72.745c9.016-15.158 17.9-30.447 27.18-45.474 13.721-22.084 32.668-22.345 46-.131q59 98.4 117.082 197.184c12.545 21.3 1.307 39.594-23.652 39.855-17.641.261-35.412.261-53.053.392h-55.669c-37.895-.261-75.79-.653-113.554-.915l28.225-48.61c18.163-.261 36.2-.392 54.36-.653 18.163.131 36.327.131 54.621.261l35.8.784c7.971.131 10.715-2.352 6.142-10.062q-34.105-57.43-67.949-115.122c-3.659-6.142-6.534-5.358-9.8.131-5.75 9.8-11.63 19.6-17.379 29.4-9.537-15.679-18.945-31.36-28.354-47.04z" transform="translate(130.042 .167)" fill="#88898D"></path><path id="Path_156" class="logo-element" data-name="Path 156" d="M210.948 72.912c9.408 15.681 18.686 31.361 28.094 47.042 2.483 5.1 4.835 10.323 7.579 15.289 14.9 26.788 32.668 51.746 45.6 79.579-18.163-.131-36.327-.131-54.621-.261-9.016-15.158-18.033-30.316-26.918-45.474-9.278-15.811-17.118-32.407-28.878-46.65-5.227-13.721-13.59-25.481-22.606-39.332-25.22 42.6-49.655 83.761-74.091 124.792-3.528 6.011-2.091 8.363 4.835 8.494 11.5.131 22.868.653 34.367 1.045-9.147 15.681-18.294 31.492-27.572 47.173l-53.183-.392c-25.35-.261-36.457-17.9-23.913-39.332q58.61-100.162 118.392-199.93c11.63-19.47 31.231-18.947 43.383.261 10.193 15.943 19.862 31.884 29.532 47.696z" fill="#03AEEE"></path><path id="Path_157" class="logo-element" data-name="Path 157" d="M49.023 161.442c9.147-15.681 18.294-31.492 27.572-47.173C95.8 82.516 115.012 50.893 134.221 19.14c11.76 14.243 19.6 30.969 28.879 46.65-9.148 15.419-18.3 30.71-27.442 46.127l-28.225 48.61a188.8 188.8 0 00-22.214 37.895c49.394 0 96.828-.131 144.392.131 10.715.131 11.63-3.136 6.272-11.368-5.358-8.363-9.931-17.118-14.9-25.612h55.666c8.886 15.289 18.033 30.447 26.657 45.735 11.5 20.516 1.437 38.548-21.691 38.548q-118.193.392-236.385 0c-23 0-33.452-18.033-22.345-38.418 8.235-15.55 17.382-30.708 26.138-45.996z" transform="translate(47.849 103.296)" fill="#F0394A"></path></g><g id="Group_126" data-name="Group 126" transform="translate(-456 904)"><path id="Path_9304" class="logo-element" data-name="Path 9304" d="M48.711-162.445H23.223V0h25.488v-48.711L74.2-76.578 127.555 0h31.379L91.645-95.156l62.645-67.289h-32.513L48.711-83.488zM216.174-23.223v-49.843h70.8v-23.223h-70.8v-42.934h89.379v-23.223H190.686V0h117.133v-23.223zm141.975-139.222h-27.867L389.415-58V0H414.9v-58l59.246-104.445h-27.864l-44.066 77.711z" transform="translate(1256 -467.91)" fill="#EC1A47"></path><path id="Path_9303" class="logo-element" data-name="Path 9303" d="M70.8 0h25.489l63.777-162.445h-26.621L83.488-32.512 33.645-162.445H6.91zm88.506 0h26.621l17.445-42.934h71.934L292.752 0h26.621l-67.289-162.445H226.6zM239.4-133.445l26.621 67.289h-53.359zM457.837 0v-23.223h-78.844v-139.222H353.5V0zm93.207-20.844q-17.389 0-30.133-12.971a42.8 42.8 0 01-12.744-31.1v-97.535h-25.6v97.54q0 27.754 19.994 47.465t48.483 19.711q28.49 0 48.484-19.654t19.995-47.522v-97.535h-25.6v97.535a42.852 42.852 0 01-12.744 31.039q-12.746 13.027-30.135 13.027zm144.184-2.379v-49.843h70.8v-23.223h-70.8v-42.934h89.379v-23.223H669.74V0h117.132v-23.223z" transform="translate(1753 -467.91)" fill="#03AEEE"></path></g></g></g></svg>